<svg id="svg" version="1.1" width="400" height="400" xmlns="http://www.w3.org/2000/svg" xmlns:xlink="http://www.w3.org/1999/xlink" style="display: block;"><g id="svgg"><path id="path0" d="M100.000 74.934 L 100.000 112.425 69.313 121.624 C 52.434 126.684,38.350 130.925,38.013 131.049 C 37.439 131.261,38.738 132.612,59.263 153.138 L 81.124 175.000 65.562 206.125 C 57.003 223.244,50.000 237.307,50.000 237.375 C 50.000 237.444,64.063 237.500,81.250 237.500 L 112.500 237.500 112.500 300.000 L 112.500 362.500 125.000 362.500 L 137.500 362.500 137.500 305.348 C 137.500 259.728,137.563 248.221,137.813 248.319 C 137.984 248.386,141.673 249.965,146.008 251.828 C 157.022 256.561,174.527 263.830,188.276 269.381 L 199.927 274.085 200.078 279.480 C 201.479 329.364,232.779 360.837,282.563 362.421 L 287.500 362.578 287.500 350.063 L 287.500 337.548 284.813 337.399 C 275.981 336.909,271.459 336.325,266.210 334.998 C 242.568 329.020,229.194 313.342,225.857 287.692 C 225.644 286.055,225.505 284.631,225.548 284.528 C 225.590 284.426,227.988 285.222,230.875 286.297 C 248.207 292.753,263.324 297.749,269.301 298.997 C 293.487 304.048,320.242 286.129,326.221 260.875 C 326.869 258.140,337.531 200.468,337.440 200.194 C 337.404 200.088,328.938 205.630,318.625 212.511 L 299.875 225.021 296.250 224.872 C 263.832 223.544,239.187 210.724,228.590 189.675 L 227.482 187.474 228.873 184.798 C 232.808 177.223,240.607 169.855,249.828 165.000 L 251.490 164.125 256.995 169.623 L 262.500 175.121 262.500 167.197 L 262.500 159.273 264.836 158.525 C 266.121 158.113,267.708 157.642,268.362 157.477 L 269.550 157.178 278.525 166.150 L 287.500 175.122 287.500 163.952 L 287.500 152.781 288.654 152.608 L 289.808 152.435 301.154 163.779 L 312.500 175.123 312.500 162.686 C 312.500 155.846,312.557 150.250,312.626 150.250 C 312.696 150.250,320.993 155.741,331.064 162.453 C 341.135 169.164,349.519 174.742,349.695 174.847 C 350.351 175.240,349.976 109.454,349.304 106.389 C 342.861 76.998,310.889 65.205,288.575 83.988 L 286.833 85.455 277.875 61.602 C 272.948 48.484,268.844 37.750,268.754 37.750 C 268.665 37.750,264.395 48.944,259.265 62.625 L 249.938 87.500 212.532 87.500 L 175.125 87.500 138.250 62.919 C 117.969 49.400,101.066 38.137,100.688 37.890 L 100.000 37.442 100.000 74.934 M231.675 112.500 L 295.975 112.500 300.227 107.813 C 305.511 101.987,307.039 100.896,310.845 100.236 C 316.766 99.208,322.420 103.382,324.412 110.250 C 324.716 111.298,324.840 113.225,324.933 118.352 L 325.054 125.079 321.584 124.931 C 296.271 123.848,264.172 130.117,243.050 140.268 C 222.307 150.237,211.010 161.892,202.599 182.000 C 200.302 187.491,200.300 186.248,202.615 192.500 C 215.698 227.844,252.481 249.973,298.188 249.998 C 300.697 249.999,302.750 250.047,302.750 250.105 C 302.750 255.249,299.101 262.924,294.603 267.242 C 287.144 274.403,279.840 276.149,269.875 273.152 C 244.153 265.418,188.395 243.253,124.271 215.273 L 117.916 212.500 104.208 212.500 L 90.499 212.500 101.104 191.291 L 111.709 170.083 98.360 156.735 C 91.019 149.395,85.093 143.312,85.193 143.218 C 85.293 143.124,89.987 141.677,95.625 140.002 C 101.263 138.328,110.117 135.674,115.301 134.104 C 120.486 132.534,124.789 131.250,124.864 131.250 C 124.939 131.250,125.000 120.675,125.000 107.750 L 125.000 84.249 146.187 98.375 L 167.375 112.500 231.675 112.500 M162.502 125.438 C 162.505 126.235,163.454 129.841,164.262 132.125 C 173.106 157.134,201.438 155.814,221.875 129.439 C 223.113 127.842,224.328 126.190,224.577 125.768 L 225.028 125.000 193.764 125.000 C 164.155 125.000,162.500 125.023,162.502 125.438 " stroke="none" fill="#000000" fill-rule="evenodd"></path><path id="path1" d="M100.000 74.934 L 100.000 112.425 69.313 121.624 C 52.434 126.684,38.350 130.925,38.013 131.049 C 37.439 131.261,38.738 132.612,59.263 153.138 L 81.124 175.000 65.562 206.125 C 57.003 223.244,50.000 237.307,50.000 237.375 C 50.000 237.444,64.063 237.500,81.250 237.500 L 112.500 237.500 112.500 300.000 L 112.500 362.500 125.000 362.500 L 137.500 362.500 137.500 305.348 C 137.500 259.728,137.563 248.221,137.813 248.319 C 137.984 248.386,141.673 249.965,146.008 251.828 C 157.022 256.561,174.527 263.830,188.276 269.381 L 199.927 274.085 200.078 279.480 C 201.479 329.364,232.779 360.837,282.563 362.421 L 287.500 362.578 287.500 350.063 L 287.500 337.548 284.813 337.399 C 275.981 336.909,271.459 336.325,266.210 334.998 C 242.568 329.020,229.194 313.342,225.857 287.692 C 225.644 286.055,225.505 284.631,225.548 284.528 C 225.590 284.426,227.988 285.222,230.875 286.297 C 248.207 292.753,263.324 297.749,269.301 298.997 C 293.487 304.048,320.242 286.129,326.221 260.875 C 326.869 258.140,337.531 200.468,337.440 200.194 C 337.404 200.088,328.938 205.630,318.625 212.511 L 299.875 225.021 296.250 224.872 C 263.832 223.544,239.187 210.724,228.590 189.675 L 227.482 187.474 228.873 184.798 C 232.808 177.223,240.607 169.855,249.828 165.000 L 251.490 164.125 256.995 169.623 L 262.500 175.121 262.500 167.197 L 262.500 159.273 264.836 158.525 C 266.121 158.113,267.708 157.642,268.362 157.477 L 269.550 157.178 278.525 166.150 L 287.500 175.122 287.500 163.952 L 287.500 152.781 288.654 152.608 L 289.808 152.435 301.154 163.779 L 312.500 175.123 312.500 162.686 C 312.500 155.846,312.557 150.250,312.626 150.250 C 312.696 150.250,320.993 155.741,331.064 162.453 C 341.135 169.164,349.519 174.742,349.695 174.847 C 350.351 175.240,349.976 109.454,349.304 106.389 C 342.861 76.998,310.889 65.205,288.575 83.988 L 286.833 85.455 277.875 61.602 C 272.948 48.484,268.844 37.750,268.754 37.750 C 268.665 37.750,264.395 48.944,259.265 62.625 L 249.938 87.500 212.532 87.500 L 175.125 87.500 138.250 62.919 C 117.969 49.400,101.066 38.137,100.688 37.890 L 100.000 37.442 100.000 74.934 M231.675 112.500 L 295.975 112.500 300.227 107.813 C 305.511 101.987,307.039 100.896,310.845 100.236 C 316.766 99.208,322.420 103.382,324.412 110.250 C 324.716 111.298,324.840 113.225,324.933 118.352 L 325.054 125.079 321.584 124.931 C 296.271 123.848,264.172 130.117,243.050 140.268 C 222.307 150.237,211.010 161.892,202.599 182.000 C 200.302 187.491,200.300 186.248,202.615 192.500 C 215.698 227.844,252.481 249.973,298.188 249.998 C 300.697 249.999,302.750 250.047,302.750 250.105 C 302.750 255.249,299.101 262.924,294.603 267.242 C 287.144 274.403,279.840 276.149,269.875 273.152 C 244.153 265.418,188.395 243.253,124.271 215.273 L 117.916 212.500 104.208 212.500 L 90.499 212.500 101.104 191.291 L 111.709 170.083 98.360 156.735 C 91.019 149.395,85.093 143.312,85.193 143.218 C 85.293 143.124,89.987 141.677,95.625 140.002 C 101.263 138.328,110.117 135.674,115.301 134.104 C 120.486 132.534,124.789 131.250,124.864 131.250 C 124.939 131.250,125.000 120.675,125.000 107.750 L 125.000 84.249 146.187 98.375 L 167.375 112.500 231.675 112.500 M162.502 125.438 C 162.505 126.235,163.454 129.841,164.262 132.125 C 173.106 157.134,201.438 155.814,221.875 129.439 C 223.113 127.842,224.328 126.190,224.577 125.768 L 225.028 125.000 193.764 125.000 C 164.155 125.000,162.500 125.023,162.502 125.438 " stroke="none" fill="#000000" fill-rule="evenodd"></path><path id="path2" d="M100.000 74.934 L 100.000 112.425 69.313 121.624 C 52.434 126.684,38.350 130.925,38.013 131.049 C 37.439 131.261,38.738 132.612,59.263 153.138 L 81.124 175.000 65.562 206.125 C 57.003 223.244,50.000 237.307,50.000 237.375 C 50.000 237.444,64.063 237.500,81.250 237.500 L 112.500 237.500 112.500 300.000 L 112.500 362.500 125.000 362.500 L 137.500 362.500 137.500 305.348 C 137.500 259.728,137.563 248.221,137.813 248.319 C 137.984 248.386,141.673 249.965,146.008 251.828 C 157.022 256.561,174.527 263.830,188.276 269.381 L 199.927 274.085 200.078 279.480 C 201.479 329.364,232.779 360.837,282.563 362.421 L 287.500 362.578 287.500 350.063 L 287.500 337.548 284.813 337.399 C 275.981 336.909,271.459 336.325,266.210 334.998 C 242.568 329.020,229.194 313.342,225.857 287.692 C 225.644 286.055,225.505 284.631,225.548 284.528 C 225.590 284.426,227.988 285.222,230.875 286.297 C 248.207 292.753,263.324 297.749,269.301 298.997 C 293.487 304.048,320.242 286.129,326.221 260.875 C 326.869 258.140,337.531 200.468,337.440 200.194 C 337.404 200.088,328.938 205.630,318.625 212.511 L 299.875 225.021 296.250 224.872 C 263.832 223.544,239.187 210.724,228.590 189.675 L 227.482 187.474 228.873 184.798 C 232.808 177.223,240.607 169.855,249.828 165.000 L 251.490 164.125 256.995 169.623 L 262.500 175.121 262.500 167.197 L 262.500 159.273 264.836 158.525 C 266.121 158.113,267.708 157.642,268.362 157.477 L 269.550 157.178 278.525 166.150 L 287.500 175.122 287.500 163.952 L 287.500 152.781 288.654 152.608 L 289.808 152.435 301.154 163.779 L 312.500 175.123 312.500 162.686 C 312.500 155.846,312.557 150.250,312.626 150.250 C 312.696 150.250,320.993 155.741,331.064 162.453 C 341.135 169.164,349.519 174.742,349.695 174.847 C 350.351 175.240,349.976 109.454,349.304 106.389 C 342.861 76.998,310.889 65.205,288.575 83.988 L 286.833 85.455 277.875 61.602 C 272.948 48.484,268.844 37.750,268.754 37.750 C 268.665 37.750,264.395 48.944,259.265 62.625 L 249.938 87.500 212.532 87.500 L 175.125 87.500 138.250 62.919 C 117.969 49.400,101.066 38.137,100.688 37.890 L 100.000 37.442 100.000 74.934 M231.675 112.500 L 295.975 112.500 300.227 107.813 C 305.511 101.987,307.039 100.896,310.845 100.236 C 316.766 99.208,322.420 103.382,324.412 110.250 C 324.716 111.298,324.840 113.225,324.933 118.352 L 325.054 125.079 321.584 124.931 C 296.271 123.848,264.172 130.117,243.050 140.268 C 222.307 150.237,211.010 161.892,202.599 182.000 C 200.302 187.491,200.300 186.248,202.615 192.500 C 215.698 227.844,252.481 249.973,298.188 249.998 C 300.697 249.999,302.750 250.047,302.750 250.105 C 302.750 255.249,299.101 262.924,294.603 267.242 C 287.144 274.403,279.840 276.149,269.875 273.152 C 244.153 265.418,188.395 243.253,124.271 215.273 L 117.916 212.500 104.208 212.500 L 90.499 212.500 101.104 191.291 L 111.709 170.083 98.360 156.735 C 91.019 149.395,85.093 143.312,85.193 143.218 C 85.293 143.124,89.987 141.677,95.625 140.002 C 101.263 138.328,110.117 135.674,115.301 134.104 C 120.486 132.534,124.789 131.250,124.864 131.250 C 124.939 131.250,125.000 120.675,125.000 107.750 L 125.000 84.249 146.187 98.375 L 167.375 112.500 231.675 112.500 M162.502 125.438 C 162.505 126.235,163.454 129.841,164.262 132.125 C 173.106 157.134,201.438 155.814,221.875 129.439 C 223.113 127.842,224.328 126.190,224.577 125.768 L 225.028 125.000 193.764 125.000 C 164.155 125.000,162.500 125.023,162.502 125.438 " stroke="none" fill="#000000" fill-rule="evenodd"></path><path id="path3" d="M100.000 74.934 L 100.000 112.425 69.313 121.624 C 52.434 126.684,38.350 130.925,38.013 131.049 C 37.439 131.261,38.738 132.612,59.263 153.138 L 81.124 175.000 65.562 206.125 C 57.003 223.244,50.000 237.307,50.000 237.375 C 50.000 237.444,64.063 237.500,81.250 237.500 L 112.500 237.500 112.500 300.000 L 112.500 362.500 125.000 362.500 L 137.500 362.500 137.500 305.348 C 137.500 259.728,137.563 248.221,137.813 248.319 C 137.984 248.386,141.673 249.965,146.008 251.828 C 157.022 256.561,174.527 263.830,188.276 269.381 L 199.927 274.085 200.078 279.480 C 201.479 329.364,232.779 360.837,282.563 362.421 L 287.500 362.578 287.500 350.063 L 287.500 337.548 284.813 337.399 C 275.981 336.909,271.459 336.325,266.210 334.998 C 242.568 329.020,229.194 313.342,225.857 287.692 C 225.644 286.055,225.505 284.631,225.548 284.528 C 225.590 284.426,227.988 285.222,230.875 286.297 C 248.207 292.753,263.324 297.749,269.301 298.997 C 293.487 304.048,320.242 286.129,326.221 260.875 C 326.869 258.140,337.531 200.468,337.440 200.194 C 337.404 200.088,328.938 205.630,318.625 212.511 L 299.875 225.021 296.250 224.872 C 263.832 223.544,239.187 210.724,228.590 189.675 L 227.482 187.474 228.873 184.798 C 232.808 177.223,240.607 169.855,249.828 165.000 L 251.490 164.125 256.995 169.623 L 262.500 175.121 262.500 167.197 L 262.500 159.273 264.836 158.525 C 266.121 158.113,267.708 157.642,268.362 157.477 L 269.550 157.178 278.525 166.150 L 287.500 175.122 287.500 163.952 L 287.500 152.781 288.654 152.608 L 289.808 152.435 301.154 163.779 L 312.500 175.123 312.500 162.686 C 312.500 155.846,312.557 150.250,312.626 150.250 C 312.696 150.250,320.993 155.741,331.064 162.453 C 341.135 169.164,349.519 174.742,349.695 174.847 C 350.351 175.240,349.976 109.454,349.304 106.389 C 342.861 76.998,310.889 65.205,288.575 83.988 L 286.833 85.455 277.875 61.602 C 272.948 48.484,268.844 37.750,268.754 37.750 C 268.665 37.750,264.395 48.944,259.265 62.625 L 249.938 87.500 212.532 87.500 L 175.125 87.500 138.250 62.919 C 117.969 49.400,101.066 38.137,100.688 37.890 L 100.000 37.442 100.000 74.934 M231.675 112.500 L 295.975 112.500 300.227 107.813 C 305.511 101.987,307.039 100.896,310.845 100.236 C 316.766 99.208,322.420 103.382,324.412 110.250 C 324.716 111.298,324.840 113.225,324.933 118.352 L 325.054 125.079 321.584 124.931 C 296.271 123.848,264.172 130.117,243.050 140.268 C 222.307 150.237,211.010 161.892,202.599 182.000 C 200.302 187.491,200.300 186.248,202.615 192.500 C 215.698 227.844,252.481 249.973,298.188 249.998 C 300.697 249.999,302.750 250.047,302.750 250.105 C 302.750 255.249,299.101 262.924,294.603 267.242 C 287.144 274.403,279.840 276.149,269.875 273.152 C 244.153 265.418,188.395 243.253,124.271 215.273 L 117.916 212.500 104.208 212.500 L 90.499 212.500 101.104 191.291 L 111.709 170.083 98.360 156.735 C 91.019 149.395,85.093 143.312,85.193 143.218 C 85.293 143.124,89.987 141.677,95.625 140.002 C 101.263 138.328,110.117 135.674,115.301 134.104 C 120.486 132.534,124.789 131.250,124.864 131.250 C 124.939 131.250,125.000 120.675,125.000 107.750 L 125.000 84.249 146.187 98.375 L 167.375 112.500 231.675 112.500 M162.502 125.438 C 162.505 126.235,163.454 129.841,164.262 132.125 C 173.106 157.134,201.438 155.814,221.875 129.439 C 223.113 127.842,224.328 126.190,224.577 125.768 L 225.028 125.000 193.764 125.000 C 164.155 125.000,162.500 125.023,162.502 125.438 " stroke="none" fill="#000000" fill-rule="evenodd"></path><path id="path4" d="M100.000 74.934 L 100.000 112.425 69.313 121.624 C 52.434 126.684,38.350 130.925,38.013 131.049 C 37.439 131.261,38.738 132.612,59.263 153.138 L 81.124 175.000 65.562 206.125 C 57.003 223.244,50.000 237.307,50.000 237.375 C 50.000 237.444,64.063 237.500,81.250 237.500 L 112.500 237.500 112.500 300.000 L 112.500 362.500 125.000 362.500 L 137.500 362.500 137.500 305.348 C 137.500 259.728,137.563 248.221,137.813 248.319 C 137.984 248.386,141.673 249.965,146.008 251.828 C 157.022 256.561,174.527 263.830,188.276 269.381 L 199.927 274.085 200.078 279.480 C 201.479 329.364,232.779 360.837,282.563 362.421 L 287.500 362.578 287.500 350.063 L 287.500 337.548 284.813 337.399 C 275.981 336.909,271.459 336.325,266.210 334.998 C 242.568 329.020,229.194 313.342,225.857 287.692 C 225.644 286.055,225.505 284.631,225.548 284.528 C 225.590 284.426,227.988 285.222,230.875 286.297 C 248.207 292.753,263.324 297.749,269.301 298.997 C 293.487 304.048,320.242 286.129,326.221 260.875 C 326.869 258.140,337.531 200.468,337.440 200.194 C 337.404 200.088,328.938 205.630,318.625 212.511 L 299.875 225.021 296.250 224.872 C 263.832 223.544,239.187 210.724,228.590 189.675 L 227.482 187.474 228.873 184.798 C 232.808 177.223,240.607 169.855,249.828 165.000 L 251.490 164.125 256.995 169.623 L 262.500 175.121 262.500 167.197 L 262.500 159.273 264.836 158.525 C 266.121 158.113,267.708 157.642,268.362 157.477 L 269.550 157.178 278.525 166.150 L 287.500 175.122 287.500 163.952 L 287.500 152.781 288.654 152.608 L 289.808 152.435 301.154 163.779 L 312.500 175.123 312.500 162.686 C 312.500 155.846,312.557 150.250,312.626 150.250 C 312.696 150.250,320.993 155.741,331.064 162.453 C 341.135 169.164,349.519 174.742,349.695 174.847 C 350.351 175.240,349.976 109.454,349.304 106.389 C 342.861 76.998,310.889 65.205,288.575 83.988 L 286.833 85.455 277.875 61.602 C 272.948 48.484,268.844 37.750,268.754 37.750 C 268.665 37.750,264.395 48.944,259.265 62.625 L 249.938 87.500 212.532 87.500 L 175.125 87.500 138.250 62.919 C 117.969 49.400,101.066 38.137,100.688 37.890 L 100.000 37.442 100.000 74.934 M231.675 112.500 L 295.975 112.500 300.227 107.813 C 305.511 101.987,307.039 100.896,310.845 100.236 C 316.766 99.208,322.420 103.382,324.412 110.250 C 324.716 111.298,324.840 113.225,324.933 118.352 L 325.054 125.079 321.584 124.931 C 296.271 123.848,264.172 130.117,243.050 140.268 C 222.307 150.237,211.010 161.892,202.599 182.000 C 200.302 187.491,200.300 186.248,202.615 192.500 C 215.698 227.844,252.481 249.973,298.188 249.998 C 300.697 249.999,302.750 250.047,302.750 250.105 C 302.750 255.249,299.101 262.924,294.603 267.242 C 287.144 274.403,279.840 276.149,269.875 273.152 C 244.153 265.418,188.395 243.253,124.271 215.273 L 117.916 212.500 104.208 212.500 L 90.499 212.500 101.104 191.291 L 111.709 170.083 98.360 156.735 C 91.019 149.395,85.093 143.312,85.193 143.218 C 85.293 143.124,89.987 141.677,95.625 140.002 C 101.263 138.328,110.117 135.674,115.301 134.104 C 120.486 132.534,124.789 131.250,124.864 131.250 C 124.939 131.250,125.000 120.675,125.000 107.750 L 125.000 84.249 146.187 98.375 L 167.375 112.500 231.675 112.500 M162.502 125.438 C 162.505 126.235,163.454 129.841,164.262 132.125 C 173.106 157.134,201.438 155.814,221.875 129.439 C 223.113 127.842,224.328 126.190,224.577 125.768 L 225.028 125.000 193.764 125.000 C 164.155 125.000,162.500 125.023,162.502 125.438 " stroke="none" fill="#ffffff" fill-rule="evenodd"></path></g></svg>
